<svg version="1.1" id="Layer_1" xmlns="http://www.w3.org/2000/svg" xmlns:xlink="http://www.w3.org/1999/xlink" x="0px" y="0px"
	 width="100%" viewBox="0 0 500 500" enable-background="new 0 0 500 500" xml:space="preserve">
<path fill="#000000" opacity="1.000000" stroke="none" 
	d="
M290.000000,501.000000 
	C193.333359,501.000000 97.166710,501.000000 1.000051,501.000000 
	C1.000034,334.333405 1.000034,167.666794 1.000017,1.000141 
	C167.666565,1.000094 334.333130,1.000094 500.999756,1.000047 
	C500.999847,167.666519 500.999847,334.333038 500.999939,500.999786 
	C430.833344,501.000000 360.666656,501.000000 290.000000,501.000000 
M166.911179,320.467163 
	C166.626114,320.274994 166.341049,320.082825 165.970016,319.428894 
	C165.970016,319.428894 165.806732,318.988434 165.833572,318.495361 
	C165.662491,318.179108 165.398224,318.001617 165.012451,317.965729 
	C165.012451,317.965729 165.032990,317.933899 164.949722,317.234589 
	C157.883240,308.125488 152.902054,297.898743 149.031845,286.403076 
	C144.897690,277.227692 143.436157,267.432678 143.106995,257.541473 
	C142.860977,250.148224 143.007828,242.620209 144.153183,235.336731 
	C145.287720,228.122025 147.892258,221.138504 150.009308,213.296585 
	C151.934830,209.013153 153.875076,204.736267 155.783051,200.445023 
	C160.895767,188.945831 169.123566,179.686707 177.945938,171.094711 
	C189.197372,160.137100 202.993408,153.015839 217.765396,148.030609 
	C229.368042,144.114944 241.378967,142.792099 253.728455,142.779022 
	C267.670319,142.764282 280.630615,146.616379 293.271515,151.352997 
	C300.730499,154.147919 307.195496,159.547623 314.229645,163.561935 
	C315.760437,164.435532 318.494263,165.339706 319.504272,164.610229 
	C323.484985,161.735138 327.125732,158.344437 330.661621,154.907410 
	C338.832062,146.965393 346.811859,138.827393 354.976440,130.879242 
	C361.170746,124.849136 367.530762,118.989288 374.073242,112.396317 
	C373.911255,111.309052 374.154480,109.717476 373.525177,109.211884 
	C366.629364,103.671661 359.838074,97.945015 352.524750,92.998924 
	C346.873901,89.177216 340.527771,86.381569 334.480713,83.148499 
	C330.037018,80.772644 325.784058,77.830780 321.079315,76.197937 
	C312.502930,73.221390 303.731384,70.703613 294.895081,68.612244 
	C287.808807,66.935059 280.518829,66.085091 273.295319,65.032234 
	C267.950653,64.253220 262.576599,63.641529 257.198730,63.135246 
	C252.641327,62.706196 248.050201,62.213619 243.491653,62.348045 
	C239.616669,62.462307 235.773239,63.476856 231.904541,64.011360 
	C225.607056,64.881432 219.150879,65.095802 213.031067,66.648628 
	C202.765167,69.253479 192.555389,72.269455 182.619232,75.921188 
	C175.277130,78.619553 168.424744,82.639938 161.323914,86.007500 
	C148.973068,91.864883 137.775208,99.528572 127.850456,108.811913 
	C119.375359,116.739296 110.902069,124.887924 103.808624,134.012054 
	C96.563164,143.331696 90.999443,153.958801 84.110931,164.356842 
	C83.047585,166.295929 81.726082,168.139252 80.965027,170.190491 
	C77.444092,179.680359 74.263809,189.299530 70.613319,198.737717 
	C65.504440,211.946472 64.104584,225.813766 63.091656,239.716187 
	C62.560032,247.012726 62.521919,254.420532 63.128754,261.705811 
	C63.903511,271.007050 64.933319,280.376556 66.996742,289.456757 
	C69.221977,299.248993 72.466087,308.848633 75.840614,318.327606 
	C78.231743,325.044189 81.578117,331.420746 84.902016,338.622101 
	C86.618027,341.902557 88.221146,345.248108 90.068993,348.452545 
	C99.697220,365.149384 112.066765,379.680481 126.392982,392.419983 
	C133.358185,398.613739 141.420563,403.573730 149.257706,409.606781 
	C149.813507,409.755829 150.369308,409.904877 151.222946,410.581573 
	C151.798737,410.732117 152.374512,410.882690 152.978851,411.030426 
	C152.978851,411.030426 152.976547,411.059052 153.234482,411.693756 
	C160.007950,415.218140 166.861450,418.598206 173.536407,422.300201 
	C183.938126,428.069092 195.125687,431.671509 206.653702,434.058472 
	C216.755722,436.150177 226.982971,437.976868 237.246063,438.854095 
	C247.238434,439.708191 257.363678,439.595642 267.396942,439.149841 
	C272.875732,438.906372 278.269165,436.258301 283.728455,436.156006 
	C296.058075,435.924988 307.004608,430.797089 318.264679,427.086670 
	C326.987122,424.212494 335.148895,419.521606 343.371979,415.274414 
	C355.462097,409.030029 366.322693,401.020355 376.569336,391.002197 
	C379.637604,388.205841 382.816956,385.519501 385.735046,382.574341 
	C387.674896,380.616486 389.241455,378.288788 391.602722,375.842804 
	C396.507629,369.335602 401.259003,362.705383 406.352539,356.349335 
	C414.469940,346.219910 420.424866,334.888397 424.936981,322.839111 
	C429.881927,309.633759 435.074402,296.502258 436.092590,282.118744 
	C436.876862,271.040283 439.195862,260.059113 439.756653,248.980179 
	C440.126129,241.681137 438.707275,234.270996 437.837067,226.940536 
	C437.517792,224.251129 436.472748,221.647903 435.884827,218.157074 
	C436.449036,214.398788 435.844788,211.560822 431.099060,211.601990 
	C429.478729,211.616074 427.855103,211.054016 426.232697,211.052597 
	C376.636780,211.009201 327.040802,210.984711 277.444855,211.009125 
	C269.326385,211.013123 261.208374,211.314392 253.089447,211.361801 
	C250.143967,211.378998 249.354782,212.440491 250.565292,215.139450 
	C250.956223,216.011108 251.001572,217.037735 251.041656,218.882553 
	C250.700623,224.129898 250.176437,229.373291 250.063187,234.625549 
	C249.908432,241.802292 249.966507,248.987900 250.119690,256.165710 
	C250.260223,262.751038 250.647919,269.331085 250.201004,276.389282 
	C250.129532,278.874542 250.007721,281.359558 249.996094,283.845093 
	C249.962753,290.974091 249.980301,290.962738 256.985504,290.960297 
	C286.548431,290.950073 316.111420,290.928223 345.674225,290.986847 
	C347.536163,290.990540 349.396820,291.643005 351.100128,292.469330 
	C351.050629,292.628876 351.001099,292.788452 350.440155,293.097137 
	C350.355865,293.408081 350.271576,293.719025 350.037506,294.464050 
	C350.037506,294.464050 349.887146,294.897888 349.391937,295.019226 
	C349.213257,295.296814 349.034546,295.574402 348.249908,296.235352 
	C346.593414,299.898499 345.464722,303.934387 343.187164,307.158875 
	C334.338135,319.687042 324.776794,331.623749 311.255432,340.260956 
	C311.037598,340.476105 310.863861,340.722412 310.149414,340.973419 
	C309.626556,341.442902 309.103729,341.912384 308.363495,342.372925 
	C308.363495,342.372925 308.298828,342.580688 307.808441,342.847931 
	C307.176208,343.550690 306.543976,344.253448 305.451721,345.033020 
	C305.451721,345.033020 305.007172,345.174103 304.281647,345.076080 
	C300.832214,347.021576 297.382751,348.967072 293.461761,351.037445 
	C293.461761,351.037445 293.005341,351.209473 292.252960,351.083740 
	C288.176056,352.785065 284.099182,354.486420 279.185852,356.074341 
	C266.974396,358.992157 254.614883,360.565887 241.580856,360.022980 
	C241.580856,360.022980 241.106064,359.959229 240.605392,359.292297 
	C236.781876,358.829071 232.958359,358.365814 228.736267,357.234497 
	C223.847122,356.131653 218.957962,355.028839 213.683868,353.309235 
	C200.987656,348.494873 189.696808,341.289307 178.879913,332.484772 
	C178.596069,332.309845 178.312225,332.134888 178.000000,332.000000 
	C178.000000,332.000000 178.039444,331.970642 177.873001,331.479614 
	C177.592072,331.290894 177.311142,331.102173 176.887924,330.455658 
	C176.702347,330.164490 176.437744,330.001953 175.808197,329.360229 
	C173.227692,326.887543 170.647186,324.414825 168.003494,321.957855 
	C168.003494,321.957855 168.066696,321.970306 167.908157,321.465149 
	C167.614792,321.287659 167.321411,321.110199 167.006943,320.992188 
	C167.006943,320.992188 167.066910,320.972504 166.911179,320.467163 
z"/>
<path fill="#FDCB34" opacity="1.000000" stroke="none" 
	d="
M84.498100,337.949066 
	C81.578117,331.420746 78.231743,325.044189 75.840614,318.327606 
	C72.466087,308.848633 69.221977,299.248993 66.996742,289.456757 
	C64.933319,280.376556 63.903511,271.007050 63.128754,261.705811 
	C62.521919,254.420532 62.560032,247.012726 63.091656,239.716187 
	C64.104584,225.813766 65.504440,211.946472 70.613319,198.737717 
	C74.263809,189.299530 77.444092,179.680359 80.965027,170.190491 
	C81.726082,168.139252 83.047585,166.295929 84.779831,164.241730 
	C85.949997,164.155823 86.451248,164.185043 87.115814,164.488007 
	C88.468536,165.909454 89.569489,167.169418 90.861183,168.187302 
	C102.423737,177.298645 113.982658,186.415421 125.620178,195.430511 
	C132.532837,200.785431 139.584839,205.960480 146.697449,211.521362 
	C147.831146,212.568741 148.841599,213.311157 149.852051,214.053574 
	C147.892258,221.138504 145.287720,228.122025 144.153183,235.336731 
	C143.007828,242.620209 142.860977,250.148224 143.106995,257.541473 
	C143.436157,267.432678 144.897690,277.227692 148.647720,286.919098 
	C127.008438,304.273102 105.753265,321.111084 84.498100,337.949066 
z"/>
<path fill="#2596F1" opacity="1.000000" stroke="none" 
	d="
M435.758789,219.005356 
	C436.472748,221.647903 437.517792,224.251129 437.837067,226.940536 
	C438.707275,234.270996 440.126129,241.681137 439.756653,248.980179 
	C439.195862,260.059113 436.876862,271.040283 436.092590,282.118744 
	C435.074402,296.502258 429.881927,309.633759 424.936981,322.839111 
	C420.424866,334.888397 414.469940,346.219910 406.352539,356.349335 
	C401.259003,362.705383 396.507629,369.335602 390.950073,376.011841 
	C386.080902,377.898956 381.864380,379.617035 377.524170,381.385468 
	C376.341797,379.575317 375.575195,378.401703 374.565643,376.856140 
	C369.723999,380.032959 373.893188,383.968384 373.213531,387.912262 
	C372.002808,387.027191 370.480103,386.438141 370.468903,385.821655 
	C370.390411,381.494324 370.588898,377.159790 370.779114,372.831116 
	C370.833588,371.590668 371.418762,370.334778 371.296570,369.133179 
	C371.016235,366.376984 370.066406,363.650970 370.058594,360.910797 
	C369.967133,328.931000 369.948364,296.950684 370.078278,264.971161 
	C370.091553,261.703766 371.193512,258.440765 371.915253,254.491776 
	C371.541565,253.621475 370.191376,251.877899 370.130341,250.090317 
	C369.877563,242.686462 370.076447,235.268509 369.981079,227.857376 
	C369.936218,224.373337 371.783691,223.092743 374.919891,223.032837 
	C376.931152,222.994415 378.943787,223.025635 380.955841,223.025635 
	C380.963501,222.442337 380.971161,221.859039 380.978821,221.275742 
	C377.217712,221.090256 373.456635,220.904770 368.786896,220.674469 
	C370.717682,218.548645 371.861877,217.288864 373.421783,216.016220 
	C375.224426,216.009888 376.611328,216.016434 378.115723,216.346786 
	C380.117584,218.643005 381.730591,218.602646 383.470215,216.015747 
	C399.214539,215.998535 414.490509,216.017319 429.766235,215.964371 
	C432.358795,215.955399 434.827423,215.882339 435.758789,219.005356 
M380.892151,372.407440 
	C379.637512,373.010895 378.382874,373.614319 377.128235,374.217773 
	C377.666962,374.890503 378.205688,375.563232 378.744385,376.235931 
	C379.624298,375.110016 380.504242,373.984100 380.892151,372.407440 
M389.208221,371.626404 
	C389.015411,371.785370 388.822601,371.944305 388.629791,372.103271 
	C388.725555,372.206635 388.821320,372.309998 388.917084,372.413391 
	C389.088837,372.231323 389.260590,372.049286 389.208221,371.626404 
z"/>
<path fill="#2A99F1" opacity="1.000000" stroke="none" 
	d="
M373.006073,216.029099 
	C371.861877,217.288864 370.717682,218.548645 368.786896,220.674469 
	C373.456635,220.904770 377.217712,221.090256 380.978821,221.275742 
	C380.971161,221.859039 380.963501,222.442337 380.955841,223.025635 
	C378.943787,223.025635 376.931152,222.994415 374.919891,223.032837 
	C371.783691,223.092743 369.936218,224.373337 369.981079,227.857376 
	C370.076447,235.268509 369.877563,242.686462 370.130341,250.090317 
	C370.191376,251.877899 371.541565,253.621475 371.915253,254.491776 
	C371.193512,258.440765 370.091553,261.703766 370.078278,264.971161 
	C369.948364,296.950684 369.967133,328.931000 370.058594,360.910797 
	C370.066406,363.650970 371.016235,366.376984 371.296570,369.133179 
	C371.418762,370.334778 370.833588,371.590668 370.779114,372.831116 
	C370.588898,377.159790 370.390411,381.494324 370.468903,385.821655 
	C370.480103,386.438141 372.002808,387.027191 373.213531,387.912262 
	C373.893188,383.968384 369.723999,380.032959 374.565643,376.856140 
	C375.575195,378.401703 376.341797,379.575317 377.524170,381.385468 
	C381.864380,379.617035 386.080902,377.898956 390.636292,376.153748 
	C389.241455,378.288788 387.674896,380.616486 385.735046,382.574341 
	C382.816956,385.519501 379.637604,388.205841 375.875916,391.125702 
	C374.426849,391.228424 373.671143,391.207642 372.761230,390.931824 
	C372.070465,390.463287 371.533966,390.249786 370.852203,389.783447 
	C369.914612,388.976013 369.122253,388.421356 368.179871,387.562012 
	C366.022980,385.829041 364.016144,384.400787 361.815979,382.713135 
	C359.923248,381.247711 358.223846,380.041718 356.385986,378.507080 
	C351.498688,374.460846 346.749817,370.743317 341.857269,366.940186 
	C341.713593,366.854584 341.380280,366.826630 341.255646,366.503418 
	C335.008301,361.107513 328.785248,356.149811 322.798737,350.921204 
	C318.912750,347.527222 315.371796,343.738251 311.676239,340.126251 
	C324.776794,331.623749 334.338135,319.687042 343.187164,307.158875 
	C345.464722,303.934387 346.593414,299.898499 348.772644,295.944031 
	C349.571106,295.462616 349.768341,295.210999 349.887146,294.897888 
	C349.887146,294.897888 350.037506,294.464050 350.283997,294.099609 
	C350.748199,293.514191 350.888550,293.251801 350.951538,292.948059 
	C351.001099,292.788452 351.050629,292.628876 351.374359,291.941498 
	C352.031372,289.896698 352.414124,288.379700 353.014282,286.001221 
	C343.470428,286.001221 334.734009,286.001221 325.998291,285.547760 
	C326.338196,278.172028 326.565948,271.242004 327.048615,264.329742 
	C327.513184,257.676392 328.395569,251.051208 328.817230,244.396088 
	C329.437866,234.600479 329.399384,224.859802 324.482971,216.042770 
	C340.968994,216.029282 356.987549,216.029190 373.006073,216.029099 
z"/>
<path fill="#2CBA78" opacity="1.000000" stroke="none" 
	d="
M84.700058,338.285583 
	C105.753265,321.111084 127.008438,304.273102 148.552124,287.307068 
	C152.902054,297.898743 157.883240,308.125488 164.618805,317.631897 
	C161.074890,318.728607 157.861893,319.427979 154.999390,320.051086 
	C154.999390,325.420563 154.999374,330.853088 154.999374,336.285583 
	C154.999374,352.374146 155.026932,368.462738 154.988297,384.551208 
	C154.967529,393.202454 156.562744,402.277191 148.986252,409.092224 
	C141.420563,403.573730 133.358185,398.613739 126.392982,392.419983 
	C112.066765,379.680481 99.697220,365.149384 90.068993,348.452545 
	C88.221146,345.248108 86.618027,341.902557 84.700058,338.285583 
z"/>
<path fill="#23B874" opacity="1.000000" stroke="none" 
	d="
M149.121979,409.349487 
	C156.562744,402.277191 154.967529,393.202454 154.988297,384.551208 
	C155.026932,368.462738 154.999374,352.374146 154.999374,336.285583 
	C154.999374,330.853088 154.999390,325.420563 154.999390,320.051086 
	C157.861893,319.427979 161.074890,318.728607 164.660446,317.981567 
	C165.032990,317.933899 165.012451,317.965729 165.123322,318.156982 
	C165.384964,318.597534 165.575806,318.810913 165.806732,318.988434 
	C165.806732,318.988434 165.970016,319.428894 166.142075,319.873352 
	C166.565063,320.536041 166.815994,320.754272 167.066910,320.972504 
	C167.066910,320.972504 167.006943,320.992188 167.156677,321.167480 
	C167.519897,321.600311 167.773331,321.809479 168.066696,321.970306 
	C168.066696,321.970306 168.003494,321.957855 168.032074,322.314240 
	C168.335175,324.896881 168.609680,327.123138 168.873016,329.258636 
	C171.526291,329.519318 173.810211,329.743683 176.094147,329.968048 
	C176.437744,330.001953 176.702347,330.164490 177.091980,330.892059 
	C177.502335,331.590546 177.750137,331.804626 178.039444,331.970642 
	C178.039444,331.970642 178.000000,332.000000 178.153946,332.179535 
	C178.521179,332.609192 178.773483,332.810394 179.064835,332.962677 
	C189.696808,341.289307 200.987656,348.494873 213.842133,353.657166 
	C214.000412,354.005096 213.932358,354.084503 213.551987,354.065186 
	C203.504272,353.074646 203.000626,353.563202 203.000153,363.925415 
	C202.999496,377.755707 203.008194,391.585968 202.995468,405.416260 
	C202.991119,410.139099 204.359970,415.494232 195.552505,416.868225 
	C198.512360,418.131805 199.496979,418.936493 200.439957,418.890350 
	C205.378632,418.648529 205.369965,421.640778 204.723633,425.118439 
	C204.541489,426.098358 204.240067,427.056091 203.562103,428.021790 
	C193.097412,425.039581 182.987839,422.289520 173.056854,419.000244 
	C166.235046,416.740784 159.661209,413.732574 152.976547,411.059052 
	C152.976547,411.059052 152.978851,411.030426 152.773529,410.810791 
	C152.020508,410.412109 151.472809,410.233002 150.925110,410.053925 
	C150.369308,409.904877 149.813507,409.755829 149.121979,409.349487 
M162.409912,326.874847 
	C162.161331,326.854034 161.912766,326.833252 161.664185,326.812469 
	C161.660507,326.953278 161.656815,327.094116 161.653122,327.234924 
	C161.902664,327.225555 162.152191,327.216187 162.409912,326.874847 
z"/>
<path fill="#16B56C" opacity="1.000000" stroke="none" 
	d="
M241.106064,359.959229 
	C241.106064,359.959229 241.580856,360.022980 242.161896,360.301788 
	C249.981461,360.668823 257.280884,361.363464 264.438324,360.644623 
	C269.728821,360.113251 274.834351,357.740295 280.022278,356.187805 
	C284.099182,354.486420 288.176056,352.785065 292.549622,351.476562 
	C289.941742,355.058502 287.037201,358.247681 284.079773,361.494904 
	C284.362762,361.590546 285.114899,361.632599 285.535797,362.027618 
	C286.694397,363.114929 287.714203,364.350189 288.788910,365.526855 
	C287.494476,366.092346 286.061493,366.467285 284.945801,367.278564 
	C283.896271,368.041840 282.534973,369.214905 282.450500,370.296661 
	C282.259827,372.738403 282.952393,375.233917 282.968994,377.709686 
	C283.041534,388.533722 282.926788,399.359619 283.083984,410.181885 
	C283.106812,411.753998 283.798706,414.118286 284.929596,414.728302 
	C288.990356,416.918823 288.743378,418.353485 284.865845,420.349731 
	C283.738647,420.930054 282.224152,422.871643 282.492523,423.587006 
	C282.976776,424.877930 284.514984,426.103577 285.893860,426.657745 
	C288.497040,427.704010 291.299377,428.254944 293.715759,429.238617 
	C282.329254,430.982422 271.272614,432.753479 260.152618,433.920837 
	C253.499557,434.619293 246.745773,434.535370 240.040436,434.471222 
	C237.347137,434.445465 234.662338,433.530487 232.313599,432.844269 
	C233.436111,430.658569 234.872650,428.656860 234.897339,426.637848 
	C235.086670,411.145416 235.107178,395.648376 234.929184,380.155670 
	C234.883484,376.177734 233.943146,372.210052 233.326813,367.584778 
	C234.007568,367.155945 235.703354,366.087738 237.399124,365.019562 
	C236.968262,364.397247 236.537399,363.774963 236.106537,363.152679 
	C233.845093,363.152679 231.511200,362.796417 229.339569,363.238068 
	C226.252945,363.865814 225.897675,362.327179 226.375763,360.002045 
	C227.501221,360.002319 228.251526,360.001770 229.439560,360.002136 
	C233.620209,359.988403 237.363144,359.973816 241.106064,359.959229 
z"/>
<path fill="#12B36B" opacity="1.000000" stroke="none" 
	d="
M294.018921,429.011749 
	C291.299377,428.254944 288.497040,427.704010 285.893860,426.657745 
	C284.514984,426.103577 282.976776,424.877930 282.492523,423.587006 
	C282.224152,422.871643 283.738647,420.930054 284.865845,420.349731 
	C288.743378,418.353485 288.990356,416.918823 284.929596,414.728302 
	C283.798706,414.118286 283.106812,411.753998 283.083984,410.181885 
	C282.926788,399.359619 283.041534,388.533722 282.968994,377.709686 
	C282.952393,375.233917 282.259827,372.738403 282.450500,370.296661 
	C282.534973,369.214905 283.896271,368.041840 284.945801,367.278564 
	C286.061493,366.467285 287.494476,366.092346 288.788910,365.526855 
	C287.714203,364.350189 286.694397,363.114929 285.535797,362.027618 
	C285.114899,361.632599 284.362762,361.590546 284.079773,361.494904 
	C287.037201,358.247681 289.941742,355.058502 292.925812,351.539429 
	C293.005341,351.209473 293.461761,351.037445 294.009888,351.035461 
	C298.748016,350.341064 302.954742,349.678467 305.007172,345.174103 
	C305.007172,345.174103 305.451721,345.033020 306.041687,344.980621 
	C307.187378,344.145721 307.743103,343.363220 308.298828,342.580688 
	C308.298828,342.580688 308.363495,342.372925 308.769775,342.442017 
	C309.695435,342.007385 310.214874,341.503662 310.734283,340.999908 
	C310.863861,340.722412 311.037598,340.476105 311.465820,340.193604 
	C315.371796,343.738251 318.912750,347.527222 322.798737,350.921204 
	C328.785248,356.149811 335.008301,361.107513 340.877838,366.499817 
	C338.297089,365.276611 335.892242,363.837402 333.657135,362.170624 
	C328.020325,357.967316 324.461731,359.171936 321.855682,366.425842 
	C323.317902,366.425842 324.723083,366.425842 326.078674,366.425842 
	C325.701233,370.254425 325.146027,373.805450 325.045959,377.369202 
	C324.878052,383.347961 325.443604,389.376160 324.891388,395.308228 
	C324.144928,403.327118 326.198578,412.391968 317.281494,417.946625 
	C317.465912,418.303284 317.650299,418.659943 317.834717,419.016602 
	C320.231201,419.016602 322.627655,419.016602 324.773071,419.266052 
	C322.410248,420.424744 320.364685,421.559296 318.174805,422.202728 
	C310.148804,424.560822 302.074829,426.755524 294.018921,429.011749 
z"/>
<path fill="#349EF2" opacity="1.000000" stroke="none" 
	d="
M250.926697,275.913452 
	C250.647919,269.331085 250.260223,262.751038 250.119690,256.165710 
	C249.966507,248.987900 249.908432,241.802292 250.063187,234.625549 
	C250.176437,229.373291 250.700623,224.129898 251.383316,218.163239 
	C253.572510,216.968613 255.417923,216.090042 257.267914,216.080322 
	C275.845306,215.982635 294.423431,216.027618 312.847534,216.388184 
	C311.002014,217.162308 309.317108,217.906067 307.617401,217.941696 
	C300.932617,218.081818 294.243164,217.999069 287.082581,217.999069 
	C287.390533,224.796997 287.967804,231.513794 287.930084,238.227142 
	C287.882507,246.693771 286.991669,255.163330 287.133636,263.620361 
	C287.213226,268.359711 284.644714,273.494568 288.493225,277.905060 
	C285.325958,285.541351 291.322266,283.403931 294.914764,284.070282 
	C296.346069,284.335815 297.640656,285.338562 298.528992,286.009705 
	C284.627136,286.013794 271.187561,285.778351 257.763458,286.131409 
	C252.491379,286.270081 251.018875,283.892792 251.007812,279.394501 
	C251.004959,278.234100 250.955017,277.073792 250.926697,275.913452 
z"/>
<path fill="#F07971" opacity="1.000000" stroke="none" 
	d="
M86.952507,164.214264 
	C86.451248,164.185043 85.949997,164.155823 85.074120,164.070068 
	C90.999443,153.958801 96.563164,143.331696 103.808624,134.012054 
	C110.902069,124.887924 119.375359,116.739296 127.850456,108.811913 
	C137.775208,99.528572 148.973068,91.864883 161.323914,86.007500 
	C168.424744,82.639938 175.277130,78.619553 182.619232,75.921188 
	C192.555389,72.269455 202.765167,69.253479 213.031067,66.648628 
	C219.150879,65.095802 225.607056,64.881432 231.904541,64.011360 
	C235.773239,63.476856 239.616669,62.462307 243.491653,62.348045 
	C248.050201,62.213619 252.641327,62.706196 257.198730,63.135246 
	C262.576599,63.641529 267.950653,64.253220 273.295319,65.032234 
	C280.518829,66.085091 287.808807,66.935059 294.895081,68.612244 
	C303.731384,70.703613 312.502930,73.221390 321.079315,76.197937 
	C325.784058,77.830780 330.037018,80.772644 334.480713,83.148499 
	C340.527771,86.381569 346.873901,89.177216 352.524750,92.998924 
	C359.838074,97.945015 366.629364,103.671661 373.525177,109.211884 
	C374.154480,109.717476 373.911255,111.309052 373.643829,112.693184 
	C372.811859,112.957375 372.409271,112.924706 371.853638,112.600983 
	C371.023010,111.585106 370.426270,110.757774 369.655945,110.150711 
	C355.538971,99.025932 340.603058,89.131721 323.709290,82.826004 
	C313.069305,78.854530 301.966949,76.121788 290.772339,72.612160 
	C288.883087,71.924782 287.320038,71.315750 285.699768,71.014572 
	C269.925385,68.082405 254.005127,67.464760 237.580963,68.096344 
	C224.766769,70.375702 212.381653,72.678192 199.628601,75.045029 
	C196.503677,76.066803 193.746689,77.024223 190.705597,78.025185 
	C189.938416,78.356567 189.455307,78.644402 188.580765,78.948135 
	C185.241867,80.007523 182.212143,80.865929 179.363617,82.131973 
	C172.868301,85.018875 166.461777,88.105568 159.718445,91.257393 
	C158.583557,91.949570 157.771011,92.532242 156.912109,93.035912 
	C135.631409,105.515350 117.475426,121.588905 102.511612,141.146713 
	C96.885811,148.499664 92.113770,156.505875 86.952507,164.214264 
z"/>
<path fill="#D05951" opacity="1.000000" stroke="none" 
	d="
M372.006714,112.892029 
	C372.409271,112.924706 372.811859,112.957375 373.515747,113.021866 
	C367.530762,118.989288 361.170746,124.849136 354.976440,130.879242 
	C346.811859,138.827393 338.832062,146.965393 330.661621,154.907410 
	C327.125732,158.344437 323.484985,161.735138 319.504272,164.610229 
	C318.494263,165.339706 315.760437,164.435532 314.229645,163.561935 
	C307.195496,159.547623 300.730499,154.147919 293.271515,151.352997 
	C280.630615,146.616379 267.670319,142.764282 253.728455,142.779022 
	C241.378967,142.792099 229.368042,144.114944 217.765396,148.030609 
	C202.993408,153.015839 189.197372,160.137100 177.945938,171.094711 
	C169.123566,179.686707 160.895767,188.945831 155.783051,200.445023 
	C153.875076,204.736267 151.934830,209.013153 149.930679,213.675079 
	C148.841599,213.311157 147.831146,212.568741 147.015350,211.290543 
	C150.822784,203.187576 154.435547,195.620392 158.330124,187.874649 
	C161.369019,184.098862 163.784561,180.161835 166.954666,176.975586 
	C173.441605,170.455627 180.333862,164.338913 187.365631,157.997833 
	C188.450302,157.304733 189.228546,156.669952 190.211212,155.895538 
	C190.674835,155.545807 190.893585,155.299759 191.385895,154.877914 
	C193.818085,153.198105 195.936279,151.658127 198.401993,150.081055 
	C200.185623,149.379089 201.621719,148.714218 203.447281,148.042480 
	C206.760727,146.992935 209.625031,145.717072 212.619736,144.950775 
	C222.048828,142.537979 231.526901,140.316513 241.456009,138.024475 
	C257.620361,137.385208 273.049591,138.778442 288.287048,144.180359 
	C296.503387,148.731964 304.387848,153.167633 312.327148,157.502899 
	C315.617432,159.299545 318.645813,160.302322 322.151031,157.073517 
	C330.919067,148.996948 340.091858,141.361603 349.032684,133.470383 
	C356.740509,126.667381 364.352386,119.755676 372.006714,112.892029 
z"/>
<path fill="#1EA167" opacity="1.000000" stroke="none" 
	d="
M293.715759,429.238617 
	C302.074829,426.755524 310.148804,424.560822 318.174805,422.202728 
	C320.364685,421.559296 322.410248,420.424744 325.160736,419.243835 
	C331.499786,416.556061 337.589935,414.778412 342.816956,411.587128 
	C352.806213,405.488220 362.303986,398.584351 372.179382,391.901184 
	C372.574371,391.619202 372.761841,391.418884 372.915466,391.186859 
	C373.671143,391.207642 374.426849,391.228424 375.554535,391.298065 
	C366.322693,401.020355 355.462097,409.030029 343.371979,415.274414 
	C335.148895,419.521606 326.987122,424.212494 318.264679,427.086670 
	C307.004608,430.797089 296.058075,435.924988 283.728455,436.156006 
	C278.269165,436.258301 272.875732,438.906372 267.396942,439.149841 
	C257.363678,439.595642 247.238434,439.708191 237.246063,438.854095 
	C226.982971,437.976868 216.755722,436.150177 206.653702,434.058472 
	C195.125687,431.671509 183.938126,428.069092 173.536407,422.300201 
	C166.861450,418.598206 160.007950,415.218140 153.105515,411.376404 
	C159.661209,413.732574 166.235046,416.740784 173.056854,419.000244 
	C182.987839,422.289520 193.097412,425.039581 203.856934,428.248566 
	C213.713226,429.991821 222.843460,431.506042 231.973679,433.020233 
	C234.662338,433.530487 237.347137,434.445465 240.040436,434.471222 
	C246.745773,434.535370 253.499557,434.619293 260.152618,433.920837 
	C271.272614,432.753479 282.329254,430.982422 293.715759,429.238617 
z"/>
<path fill="#53AAF0" opacity="1.000000" stroke="none" 
	d="
M313.001373,216.032455 
	C294.423431,216.027618 275.845306,215.982635 257.267914,216.080322 
	C255.417923,216.090042 253.572510,216.968613 251.464981,217.718719 
	C251.001572,217.037735 250.956223,216.011108 250.565292,215.139450 
	C249.354782,212.440491 250.143967,211.378998 253.089447,211.361801 
	C261.208374,211.314392 269.326385,211.013123 277.444855,211.009125 
	C327.040802,210.984711 376.636780,211.009201 426.232697,211.052597 
	C427.855103,211.054016 429.478729,211.616074 431.099060,211.601990 
	C435.844788,211.560822 436.449036,214.398788 435.821808,218.581207 
	C434.827423,215.882339 432.358795,215.955399 429.766235,215.964371 
	C414.490509,216.017319 399.214539,215.998535 383.053467,215.999878 
	C380.778320,216.004913 379.388275,216.013947 377.998260,216.022980 
	C376.611328,216.016434 375.224426,216.009888 373.421783,216.016220 
	C356.987549,216.029190 340.968994,216.029282 324.023254,216.023163 
	C319.731171,216.022095 316.366272,216.027283 313.001373,216.032455 
z"/>
<path fill="#318DD8" opacity="1.000000" stroke="none" 
	d="
M250.563843,276.151367 
	C250.955017,277.073792 251.004959,278.234100 251.007812,279.394501 
	C251.018875,283.892792 252.491379,286.270081 257.763458,286.131409 
	C271.187561,285.778351 284.627136,286.013794 298.997894,286.013550 
	C308.622711,286.009338 317.310120,286.005280 325.997559,286.001221 
	C334.734009,286.001221 343.470428,286.001221 353.014282,286.001221 
	C352.414124,288.379700 352.031372,289.896698 351.453308,291.703674 
	C349.396820,291.643005 347.536163,290.990540 345.674225,290.986847 
	C316.111420,290.928223 286.548431,290.950073 256.985504,290.960297 
	C249.980301,290.962738 249.962753,290.974091 249.996094,283.845093 
	C250.007721,281.359558 250.129532,278.874542 250.563843,276.151367 
z"/>
<path fill="#1DB771" opacity="1.000000" stroke="none" 
	d="
M279.604065,356.131073 
	C274.834351,357.740295 269.728821,360.113251 264.438324,360.644623 
	C257.280884,361.363464 249.981461,360.668823 242.390472,360.373383 
	C254.614883,360.565887 266.974396,358.992157 279.604065,356.131073 
z"/>
<path fill="#23B874" opacity="1.000000" stroke="none" 
	d="
M229.001831,360.001221 
	C228.251526,360.001770 227.501221,360.002319 226.108856,359.770905 
	C221.621979,357.720795 217.777161,355.902649 213.932358,354.084503 
	C213.932358,354.084503 214.000412,354.005096 214.034607,353.965546 
	C218.957962,355.028839 223.847122,356.131653 228.900970,357.916473 
	C229.044403,359.066040 229.023117,359.533630 229.001831,360.001221 
z"/>
<path fill="#2CBA78" opacity="1.000000" stroke="none" 
	d="
M175.951172,329.664124 
	C173.810211,329.743683 171.526291,329.519318 168.873016,329.258636 
	C168.609680,327.123138 168.335175,324.896881 168.063660,322.306396 
	C170.647186,324.414825 173.227692,326.887543 175.951172,329.664124 
z"/>
<path fill="#16B56C" opacity="1.000000" stroke="none" 
	d="
M304.644409,345.125092 
	C302.954742,349.678467 298.748016,350.341064 294.245667,350.973022 
	C297.382751,348.967072 300.832214,347.021576 304.644409,345.125092 
z"/>
<path fill="#1DB771" opacity="1.000000" stroke="none" 
	d="
M229.439575,360.002136 
	C229.023117,359.533630 229.044403,359.066040 229.100266,358.250488 
	C232.958359,358.365814 236.781876,358.829071 240.855728,359.625763 
	C237.363144,359.973816 233.620209,359.988403 229.439575,360.002136 
z"/>
<path fill="#16B56C" opacity="1.000000" stroke="none" 
	d="
M308.053650,342.714325 
	C307.743103,343.363220 307.187378,344.145721 306.271698,344.942200 
	C306.543976,344.253448 307.176208,343.550690 308.053650,342.714325 
z"/>
<path fill="#16B56C" opacity="1.000000" stroke="none" 
	d="
M310.441833,340.986664 
	C310.214874,341.503662 309.695435,342.007385 308.878479,342.446533 
	C309.103729,341.912384 309.626556,341.442902 310.441833,340.986664 
z"/>
<path fill="#1EA167" opacity="1.000000" stroke="none" 
	d="
M151.074036,410.317749 
	C151.472809,410.233002 152.020508,410.412109 152.759247,410.812225 
	C152.374512,410.882690 151.798737,410.732117 151.074036,410.317749 
z"/>
<path fill="#2CBA78" opacity="1.000000" stroke="none" 
	d="
M178.972382,332.723724 
	C178.773483,332.810394 178.521179,332.609192 178.168137,332.159515 
	C178.312225,332.134888 178.596069,332.309845 178.972382,332.723724 
z"/>
<path fill="#2CBA78" opacity="1.000000" stroke="none" 
	d="
M177.956223,331.725128 
	C177.750137,331.804626 177.502335,331.590546 177.163116,331.120972 
	C177.311142,331.102173 177.592072,331.290894 177.956223,331.725128 
z"/>
<path fill="#2CBA78" opacity="1.000000" stroke="none" 
	d="
M167.987427,321.717712 
	C167.773331,321.809479 167.519897,321.600311 167.167236,321.137756 
	C167.321411,321.110199 167.614792,321.287659 167.987427,321.717712 
z"/>
<path fill="#2CBA78" opacity="1.000000" stroke="none" 
	d="
M166.989044,320.719849 
	C166.815994,320.754272 166.565063,320.536041 166.185059,320.104248 
	C166.341049,320.082825 166.626114,320.274994 166.989044,320.719849 
z"/>
<path fill="#2CBA78" opacity="1.000000" stroke="none" 
	d="
M165.820160,318.741882 
	C165.575806,318.810913 165.384964,318.597534 165.137497,318.155579 
	C165.398224,318.001617 165.662491,318.179108 165.820160,318.741882 
z"/>
<path fill="#318DD8" opacity="1.000000" stroke="none" 
	d="
M349.639526,294.958557 
	C349.768341,295.210999 349.571106,295.462616 349.075623,295.752380 
	C349.034546,295.574402 349.213257,295.296814 349.639526,294.958557 
z"/>
<path fill="#318DD8" opacity="1.000000" stroke="none" 
	d="
M350.695862,293.022583 
	C350.888550,293.251801 350.748199,293.514191 350.358887,293.882568 
	C350.271576,293.719025 350.355865,293.408081 350.695862,293.022583 
z"/>
<path fill="#F56156" opacity="1.000000" stroke="none" 
	d="
M158.048309,188.053223 
	C154.435547,195.620392 150.822784,203.187576 146.892120,210.985565 
	C139.584839,205.960480 132.532837,200.785431 125.620178,195.430511 
	C113.982658,186.415421 102.423737,177.298645 90.861183,168.187302 
	C89.569489,167.169418 88.468536,165.909454 87.115814,164.488007 
	C92.113770,156.505875 96.885811,148.499664 102.511612,141.146713 
	C117.475426,121.588905 135.631409,105.515350 156.912109,93.035912 
	C157.771011,92.532242 158.583557,91.949570 159.706436,91.623466 
	C158.357056,94.569321 155.869827,97.133476 155.310715,100.065323 
	C154.706375,103.234329 153.990051,105.623146 151.207733,107.431389 
	C149.278152,108.685455 148.400787,110.959145 151.002274,112.129005 
	C155.156067,113.996918 155.019272,117.309509 155.012894,120.863182 
	C154.983337,137.308548 154.970139,153.754120 155.036865,170.199265 
	C155.045456,172.318039 154.885193,174.893585 155.961639,176.462891 
	C158.736740,180.508514 156.752548,182.441315 153.477264,184.270355 
	C150.517670,185.923141 150.274902,188.078751 152.162994,190.722580 
	C154.277328,189.763596 156.162811,188.908417 158.048309,188.053223 
z"/>
<path fill="#2A99F1" opacity="1.000000" stroke="none" 
	d="
M381.138153,372.632812 
	C380.504242,373.984100 379.624298,375.110016 378.744385,376.235931 
	C378.205688,375.563232 377.666962,374.890503 377.128235,374.217773 
	C378.382874,373.614319 379.637512,373.010895 381.138153,372.632812 
z"/>
<path fill="#2A99F1" opacity="1.000000" stroke="none" 
	d="
M378.115723,216.346786 
	C379.388275,216.013947 380.778320,216.004913 382.585083,216.011749 
	C381.730591,218.602646 380.117584,218.643005 378.115723,216.346786 
z"/>
<path fill="#2A99F1" opacity="1.000000" stroke="none" 
	d="
M389.320282,371.746826 
	C389.260590,372.049286 389.088837,372.231323 388.917084,372.413391 
	C388.821320,372.309998 388.725555,372.206635 388.629761,372.103271 
	C388.822601,371.944305 389.015411,371.785370 389.320282,371.746826 
z"/>
<path fill="#2E9BF3" opacity="1.000000" stroke="none" 
	d="
M325.998291,285.547729 
	C317.310120,286.005280 308.622711,286.009338 299.466370,286.009552 
	C297.640656,285.338562 296.346069,284.335815 294.914764,284.070282 
	C291.322266,283.403931 285.325958,285.541351 288.493225,277.905060 
	C284.644714,273.494568 287.213226,268.359711 287.133636,263.620361 
	C286.991669,255.163330 287.882507,246.693771 287.930084,238.227142 
	C287.967804,231.513794 287.390533,224.796997 287.082581,217.999069 
	C294.243164,217.999069 300.932617,218.081818 307.617401,217.941696 
	C309.317108,217.906067 311.002014,217.162308 312.847534,216.388184 
	C316.366272,216.027283 319.731171,216.022095 323.555756,216.036530 
	C329.399384,224.859802 329.437866,234.600479 328.817230,244.396088 
	C328.395569,251.051208 327.513184,257.676392 327.048615,264.329742 
	C326.565948,271.242004 326.338196,278.172028 325.998291,285.547729 
z"/>
<path fill="#0DB266" opacity="1.000000" stroke="none" 
	d="
M372.005737,392.014557 
	C362.303986,398.584351 352.806213,405.488220 342.816956,411.587128 
	C337.589935,414.778412 331.499786,416.556061 325.411804,418.994385 
	C322.627655,419.016602 320.231201,419.016602 317.834717,419.016602 
	C317.650299,418.659943 317.465912,418.303284 317.281494,417.946625 
	C326.198578,412.391968 324.144928,403.327118 324.891388,395.308228 
	C325.443604,389.376160 324.878052,383.347961 325.045959,377.369202 
	C325.146027,373.805450 325.701233,370.254425 326.078674,366.425842 
	C324.723083,366.425842 323.317902,366.425842 321.855682,366.425842 
	C324.461731,359.171936 328.020325,357.967316 333.657135,362.170624 
	C335.892242,363.837402 338.297089,365.276611 341.002472,366.823029 
	C341.380280,366.826630 341.713593,366.854584 341.920807,367.276672 
	C346.926849,371.411102 351.725647,375.123413 356.524445,378.835754 
	C358.223846,380.041718 359.923248,381.247711 361.878113,383.061890 
	C364.199036,385.068939 366.264465,386.467834 368.329895,387.866730 
	C369.122253,388.421356 369.914612,388.976013 370.901428,390.064606 
	C371.399200,391.070557 371.702454,391.542572 372.005737,392.014557 
z"/>
<path fill="#12B36B" opacity="1.000000" stroke="none" 
	d="
M356.385986,378.507080 
	C351.725647,375.123413 346.926849,371.411102 342.064484,367.362244 
	C346.749817,370.743317 351.498688,374.460846 356.385986,378.507080 
z"/>
<path fill="#12B36B" opacity="1.000000" stroke="none" 
	d="
M368.179871,387.562012 
	C366.264465,386.467834 364.199036,385.068939 362.071442,383.321289 
	C364.016144,384.400787 366.022980,385.829041 368.179871,387.562012 
z"/>
<path fill="#12B36B" opacity="1.000000" stroke="none" 
	d="
M372.179382,391.901184 
	C371.702454,391.542572 371.399200,391.070557 371.046692,390.317444 
	C371.533966,390.249786 372.070465,390.463287 372.761230,390.931824 
	C372.761841,391.418884 372.574371,391.619202 372.179382,391.901184 
z"/>
<path fill="#1DB771" opacity="1.000000" stroke="none" 
	d="
M213.551987,354.065186 
	C217.777161,355.902649 221.621979,357.720795 225.733704,359.770081 
	C225.897675,362.327179 226.252945,363.865814 229.339569,363.238068 
	C231.511200,362.796417 233.845093,363.152679 236.106537,363.152679 
	C236.537399,363.774963 236.968262,364.397247 237.399124,365.019562 
	C235.703354,366.087738 234.007568,367.155945 233.326813,367.584778 
	C233.943146,372.210052 234.883484,376.177734 234.929184,380.155670 
	C235.107178,395.648376 235.086670,411.145416 234.897339,426.637848 
	C234.872650,428.656860 233.436111,430.658569 232.313599,432.844269 
	C222.843460,431.506042 213.713226,429.991821 204.288177,428.250793 
	C204.240067,427.056091 204.541489,426.098358 204.723633,425.118439 
	C205.369965,421.640778 205.378632,418.648529 200.439957,418.890350 
	C199.496979,418.936493 198.512360,418.131805 195.552505,416.868225 
	C204.359970,415.494232 202.991119,410.139099 202.995468,405.416260 
	C203.008194,391.585968 202.999496,377.755707 203.000153,363.925415 
	C203.000626,353.563202 203.504272,353.074646 213.551987,354.065186 
z"/>
<path fill="#2CBA78" opacity="1.000000" stroke="none" 
	d="
M162.405823,327.040833 
	C162.152191,327.216187 161.902664,327.225555 161.653122,327.234924 
	C161.656815,327.094116 161.660507,326.953278 161.664185,326.812469 
	C161.912766,326.833252 162.161331,326.854034 162.405823,327.040833 
z"/>
<path fill="#F34E42" opacity="1.000000" stroke="none" 
	d="
M371.853638,112.600967 
	C364.352386,119.755676 356.740509,126.667381 349.032684,133.470383 
	C340.091858,141.361603 330.919067,148.996948 322.151031,157.073517 
	C318.645813,160.302322 315.617432,159.299545 312.327148,157.502899 
	C304.387848,153.167633 296.503387,148.731964 288.275055,143.806641 
	C287.692535,138.729568 286.369080,133.931290 287.373657,129.683594 
	C290.188812,117.780258 287.798645,105.945992 287.779572,94.120331 
	C287.768555,87.310715 291.630310,79.917557 284.450806,73.051781 
	C286.831573,73.390656 287.627533,73.652802 288.388062,73.573784 
	C289.298523,73.479179 290.178711,73.093170 291.071991,72.833359 
	C301.966949,76.121788 313.069305,78.854530 323.709290,82.826004 
	C340.603058,89.131721 355.538971,99.025932 369.655945,110.150711 
	C370.426270,110.757774 371.023010,111.585106 371.853638,112.600967 
z"/>
<path fill="#F4594E" opacity="1.000000" stroke="none" 
	d="
M240.985992,138.020981 
	C231.526901,140.316513 222.048828,142.537979 212.619736,144.950775 
	C209.625031,145.717072 206.760727,146.992935 203.113876,147.888031 
	C199.956146,146.728607 198.075317,146.727234 198.054459,150.118149 
	C195.936279,151.658127 193.818085,153.198105 191.174591,155.010345 
	C190.385452,155.491089 190.171295,155.741943 190.006775,156.035172 
	C189.228546,156.669952 188.450302,157.304733 187.133331,157.744446 
	C183.868835,154.416489 183.819717,151.571625 186.888214,148.426483 
	C188.117233,147.166763 188.896820,144.907166 188.888489,143.107285 
	C188.863861,137.783981 190.409286,132.106400 185.697983,127.567619 
	C184.777878,126.681221 185.035629,124.403763 185.027512,122.766533 
	C184.975449,112.270477 185.030518,101.773911 184.986832,91.277779 
	C184.967789,86.703850 184.277588,81.963013 188.972214,78.932243 
	C189.455307,78.644402 189.938416,78.356567 191.021637,78.258690 
	C195.007309,78.726944 199.257065,81.092270 199.996552,74.980682 
	C212.381653,72.678192 224.766769,70.375702 237.510880,68.436844 
	C237.074326,73.086967 235.649048,77.366341 235.600479,81.661278 
	C235.450958,94.886879 235.815414,108.118607 236.006363,121.347580 
	C236.078293,126.332520 234.799011,131.690781 240.010651,135.278137 
	C240.658249,135.723923 240.676254,137.084366 240.985992,138.020981 
z"/>
<path fill="#F45448" opacity="1.000000" stroke="none" 
	d="
M241.455994,138.024475 
	C240.676254,137.084366 240.658249,135.723923 240.010651,135.278137 
	C234.799011,131.690781 236.078293,126.332520 236.006363,121.347580 
	C235.815414,108.118607 235.450958,94.886879 235.600479,81.661278 
	C235.649048,77.366341 237.074326,73.086967 237.939972,68.459976 
	C254.005127,67.464760 269.925385,68.082405 285.699768,71.014572 
	C287.320038,71.315750 288.883087,71.924782 290.772339,72.612160 
	C290.178711,73.093170 289.298523,73.479179 288.388062,73.573784 
	C287.627533,73.652802 286.831573,73.390656 284.450806,73.051781 
	C291.630310,79.917557 287.768555,87.310715 287.779572,94.120331 
	C287.798645,105.945992 290.188812,117.780258 287.373657,129.683594 
	C286.369080,133.931290 287.692535,138.729568 287.965271,143.650223 
	C273.049591,138.778442 257.620361,137.385208 241.455994,138.024475 
z"/>
<path fill="#F55D52" opacity="1.000000" stroke="none" 
	d="
M188.580765,78.948135 
	C184.277588,81.963013 184.967789,86.703850 184.986832,91.277779 
	C185.030518,101.773911 184.975449,112.270477 185.027512,122.766533 
	C185.035629,124.403763 184.777878,126.681221 185.697983,127.567619 
	C190.409286,132.106400 188.863861,137.783981 188.888489,143.107285 
	C188.896820,144.907166 188.117233,147.166763 186.888214,148.426483 
	C183.819717,151.571625 183.868835,154.416489 186.826889,157.802765 
	C180.333862,164.338913 173.441605,170.455627 166.954666,176.975586 
	C163.784561,180.161835 161.369019,184.098862 158.330124,187.874649 
	C156.162811,188.908417 154.277328,189.763596 152.162994,190.722580 
	C150.274902,188.078751 150.517670,185.923141 153.477264,184.270355 
	C156.752548,182.441315 158.736740,180.508514 155.961639,176.462891 
	C154.885193,174.893585 155.045456,172.318039 155.036865,170.199265 
	C154.970139,153.754120 154.983337,137.308548 155.012894,120.863182 
	C155.019272,117.309509 155.156067,113.996918 151.002274,112.129005 
	C148.400787,110.959145 149.278152,108.685455 151.207733,107.431389 
	C153.990051,105.623146 154.706375,103.234329 155.310715,100.065323 
	C155.869827,97.133476 158.357056,94.569321 160.007172,91.477158 
	C166.461777,88.105568 172.868301,85.018875 179.363617,82.131973 
	C182.212143,80.865929 185.241867,80.007523 188.580765,78.948135 
z"/>
<path fill="#F55D52" opacity="1.000000" stroke="none" 
	d="
M199.628601,75.045029 
	C199.257065,81.092270 195.007309,78.726944 191.305740,78.215149 
	C193.746689,77.024223 196.503677,76.066803 199.628601,75.045029 
z"/>
<path fill="#F55D52" opacity="1.000000" stroke="none" 
	d="
M198.401993,150.081055 
	C198.075317,146.727234 199.956146,146.728607 202.724411,147.894897 
	C201.621719,148.714218 200.185623,149.379089 198.401993,150.081055 
z"/>
<path fill="#F55D52" opacity="1.000000" stroke="none" 
	d="
M190.211212,155.895538 
	C190.171295,155.741943 190.385452,155.491089 190.860565,155.150177 
	C190.893585,155.299759 190.674835,155.545807 190.211212,155.895538 
z"/>
</svg>